<svg width="21" height="20" viewBox="0 0 21 20" fill="none" xmlns="http://www.w3.org/2000/svg">
<path d="M12.9167 1.66667H8.08342C7.51675 1.66667 6.71674 2 6.31674 2.4L2.90009 5.81668C2.50009 6.21668 2.16675 7.01667 2.16675 7.58334V12.4167C2.16675 12.9833 2.50009 13.7833 2.90009 14.1833L6.31674 17.6C6.71674 18 7.51675 18.3333 8.08342 18.3333H12.9167C13.4834 18.3333 14.2834 18 14.6834 17.6L18.1001 14.1833C18.5001 13.7833 18.8334 12.9833 18.8334 12.4167V7.58334C18.8334 7.01667 18.5001 6.21668 18.1001 5.81668L14.6834 2.4C14.2834 2 13.4834 1.66667 12.9167 1.66667Z" stroke="#292D32" stroke-width="1.5" stroke-linecap="round" stroke-linejoin="round"/>
<path d="M4.6167 15.9L16.4 4.11667" stroke="#292D32" stroke-width="1.5" stroke-linecap="round" stroke-linejoin="round"/>
</svg>
