<svg width="20" height="20" viewBox="0 0 20 20" fill="none" xmlns="http://www.w3.org/2000/svg">
<path d="M15.02 0.880002C14.54 0.400001 13.58 0 12.9 0H7.10001C6.42001 0 5.46001 0.400001 4.98001 0.880002L0.880002 4.98001C0.400001 5.46001 0 6.42001 0 7.10001V12.9C0 13.58 0.400001 14.54 0.880002 15.02L2.41 16.55L16.55 2.41L15.02 0.880002Z" fill="white"/>
<path d="M19.12 4.97999L17.61 3.46999L3.46997 17.61L4.97997 19.12C5.45997 19.6 6.41998 20 7.09998 20H12.9C13.58 20 14.54 19.6 15.02 19.12L19.12 15.02C19.6 14.54 20 13.58 20 12.9V7.09999C20 6.41999 19.6 5.45999 19.12 4.97999Z" fill="white"/>
<path d="M0.489961 18.47C0.199961 18.76 0.199961 19.24 0.489961 19.53C0.639962 19.68 0.829962 19.75 1.01996 19.75C1.20996 19.75 1.39996 19.68 1.54996 19.53L3.46997 17.61L2.40996 16.55L0.489961 18.47Z" fill="white"/>
<path d="M19.53 1.54998C19.82 1.25998 19.82 0.779977 19.53 0.489977C19.24 0.199976 18.76 0.199976 18.47 0.489977L16.55 2.40998L17.61 3.46998L19.53 1.54998Z" fill="white"/>
</svg>
