<svg width="18" height="18" viewBox="0 0 18 18" fill="none" xmlns="http://www.w3.org/2000/svg">
<path d="M8.99996 0.666672C4.40829 0.666672 0.666626 4.40834 0.666626 9C0.666626 13.5917 4.40829 17.3333 8.99996 17.3333C13.5916 17.3333 17.3333 13.5917 17.3333 9C17.3333 4.40834 13.5916 0.666672 8.99996 0.666672ZM11.8 10.9167C12.0416 11.1583 12.0416 11.5583 11.8 11.8C11.675 11.925 11.5166 11.9833 11.3583 11.9833C11.2 11.9833 11.0416 11.925 10.9166 11.8L8.99996 9.88334L7.08329 11.8C6.95829 11.925 6.79996 11.9833 6.64163 11.9833C6.48329 11.9833 6.32496 11.925 6.19996 11.8C5.95829 11.5583 5.95829 11.1583 6.19996 10.9167L8.11663 9L6.19996 7.08334C5.95829 6.84167 5.95829 6.44167 6.19996 6.20001C6.44163 5.95834 6.84163 5.95834 7.08329 6.20001L8.99996 8.11667L10.9166 6.20001C11.1583 5.95834 11.5583 5.95834 11.8 6.20001C12.0416 6.44167 12.0416 6.84167 11.8 7.08334L9.88329 9L11.8 10.9167Z" fill="#686868"/>
</svg>
