<svg width="25" height="24" viewBox="0 0 25 24" fill="none" xmlns="http://www.w3.org/2000/svg">
<path d="M22.24 20.51L21.38 19.65C21.83 18.97 22.09 18.16 22.09 17.29C22.09 14.92 20.17 12.99 17.79 12.99C15.41 12.99 13.5 14.92 13.5 17.3C13.5 19.68 15.42 21.6 17.8 21.6C18.67 21.6 19.48 21.34 20.16 20.89L21.02 21.75C21.19 21.92 21.41 22.01 21.64 22.01C21.87 22.01 22.09 21.92 22.26 21.75C22.59 21.4 22.59 20.85 22.24 20.51Z" fill="#686868"/>
<path d="M22.5 8.73C22.5 9.92 22.31 11.02 21.98 12.04C21.92 12.25 21.67 12.31 21.49 12.18C20.4 11.37 19.07 10.94 17.7 10.94C14.23 10.94 11.4 13.77 11.4 17.24C11.4 18.32 11.68 19.38 12.21 20.32C12.37 20.6 12.18 20.96 11.88 20.85C9.47 20.03 4.6 17.04 3.02 12.04C2.69 11.02 2.5 9.92 2.5 8.73C2.5 5.64 4.99 3.14 8.06 3.14C9.87 3.14 11.49 4.02 12.5 5.37C13.51 4.02 15.13 3.14 16.94 3.14C20.01 3.14 22.5 5.64 22.5 8.73Z" fill="#686868"/>
</svg>
