<svg width="25" height="24" viewBox="0 0 25 24" fill="none" xmlns="http://www.w3.org/2000/svg">
<path d="M21.99 12C22.31 10.98 22.5 9.88 22.5 8.69C22.5 5.6 20.01 3.09998 16.94 3.09998C15.12 3.09998 13.51 3.98003 12.5 5.34003C11.49 3.98003 9.87 3.09998 8.06 3.09998C4.99 3.09998 2.5 5.6 2.5 8.69C2.5 15.69 8.98 19.82 11.88 20.82C12.05 20.88 12.27 20.91 12.5 20.91" stroke="#292D32" stroke-width="1.5" stroke-linecap="round" stroke-linejoin="round"/>
<path d="M18.24 21C20.0073 21 21.44 19.5673 21.44 17.8C21.44 16.0327 20.0073 14.6 18.24 14.6C16.4727 14.6 15.04 16.0327 15.04 17.8C15.04 19.5673 16.4727 21 18.24 21Z" stroke="#292D32" stroke-width="1.5" stroke-linecap="round" stroke-linejoin="round"/>
<path d="M22.04 21.6L21.04 20.6" stroke="#292D32" stroke-width="1.5" stroke-linecap="round" stroke-linejoin="round"/>
</svg>
