<svg width="25" height="24" viewBox="0 0 25 24" fill="none" xmlns="http://www.w3.org/2000/svg">
<path d="M17.79 4.14L17.72 7.93C17.71 8.45 18.04 9.14 18.46 9.45L20.94 11.33C22.53 12.53 22.27 14 20.37 14.6L17.14 15.61C16.6 15.78 16.03 16.37 15.89 16.92L15.12 19.86C14.51 22.18 12.99 22.41 11.73 20.37L9.97003 17.52C9.65003 17 8.89003 16.61 8.29003 16.64L4.95003 16.81C2.56003 16.93 1.88003 15.55 3.44003 13.73L5.42003 11.43C5.79003 11 5.96003 10.2 5.79003 9.66L4.77003 6.42C4.18003 4.52 5.24003 3.47 7.13003 4.09L10.08 5.06C10.58 5.22 11.33 5.11 11.75 4.8L14.83 2.58C16.5 1.39 17.83 2.09 17.79 4.14Z" fill="#686868"/>
<path d="M21.9399 20.47L18.9099 17.44C18.6199 17.15 18.1399 17.15 17.8499 17.44C17.5599 17.73 17.5599 18.21 17.8499 18.5L20.8799 21.53C21.0299 21.68 21.2199 21.75 21.4099 21.75C21.5999 21.75 21.7899 21.68 21.9399 21.53C22.2299 21.24 22.2299 20.76 21.9399 20.47Z" fill="#686868"/>
</svg>
