<svg width="20" height="20" viewBox="0 0 20 20" fill="none" xmlns="http://www.w3.org/2000/svg">
<path d="M14.4083 3.45002L14.35 6.60833C14.3417 7.04166 14.6167 7.61668 14.9667 7.87501L17.0334 9.44166C18.3584 10.4417 18.1417 11.6667 16.5583 12.1667L13.8667 13.0083C13.4167 13.15 12.9417 13.6417 12.825 14.1L12.1833 16.55C11.675 18.4833 10.4083 18.675 9.35833 16.975L7.89166 14.6C7.62499 14.1667 6.99167 13.8417 6.49167 13.8667L3.70836 14.0083C1.71669 14.1083 1.15002 12.9583 2.45002 11.4417L4.1 9.525C4.40834 9.16666 4.55 8.50001 4.40833 8.05001L3.56671 5.35833C3.07504 3.775 3.95836 2.90001 5.53336 3.41667L7.99171 4.22501C8.40837 4.35834 9.03336 4.26667 9.38336 4.00833L11.95 2.15833C13.3334 1.15833 14.4417 1.74168 14.4083 3.45002Z" stroke="white" stroke-width="1.5" stroke-linecap="round" stroke-linejoin="round"/>
<path d="M18.2583 18.3333L15.7333 15.8083" stroke="white" stroke-width="1.5" stroke-linecap="round" stroke-linejoin="round"/>
</svg>
