<svg width="20" height="20" viewBox="0 0 20 20" fill="none" xmlns="http://www.w3.org/2000/svg">
<path d="M14.4082 3.45002L14.3499 6.60833C14.3415 7.04166 14.6166 7.61668 14.9666 7.87501L17.0332 9.44166C18.3582 10.4417 18.1416 11.6667 16.5582 12.1667L13.8666 13.0083C13.4166 13.15 12.9416 13.6417 12.8249 14.1L12.1832 16.55C11.6749 18.4833 10.4082 18.675 9.35821 16.975L7.89154 14.6C7.62487 14.1667 6.99154 13.8417 6.49154 13.8667L3.70824 14.0083C1.71657 14.1083 1.1499 12.9583 2.4499 11.4417L4.09988 9.525C4.40821 9.16666 4.54988 8.50001 4.40821 8.05001L3.56659 5.35833C3.07492 3.775 3.95824 2.90001 5.53324 3.41667L7.99158 4.22501C8.40825 4.35834 9.03324 4.26667 9.38324 4.00833L11.9499 2.15833C13.3333 1.15833 14.4415 1.74168 14.4082 3.45002Z" stroke="#686868" stroke-width="1.5" stroke-linecap="round" stroke-linejoin="round"/>
<path d="M18.2581 18.3333L15.7332 15.8083" stroke="#686868" stroke-width="1.5" stroke-linecap="round" stroke-linejoin="round"/>
</svg>
