<svg width="273" height="191" viewBox="0 0 273 191" fill="none" xmlns="http://www.w3.org/2000/svg">
<g clip-path="url(#clip0_67_2667)">
<path d="M224.689 72.5413C224.528 71.5108 223.559 70.8071 222.52 70.9673C221.485 71.1276 220.778 72.0952 220.939 73.1257C221.211 74.885 221.558 80.3955 219.648 82.6104C219.235 83.0911 218.736 83.377 218.108 83.4932L218.282 73C218.307 71.4763 217.073 70.2259 215.539 70.2259C213.999 70.2259 212.759 71.4888 212.797 73.022L213.292 92.9371C212.636 92.8303 212.115 92.5444 211.689 92.048C209.78 89.83 210.127 84.3226 210.398 82.5633C210.559 81.5328 209.852 80.5683 208.817 80.4049C207.779 80.2447 206.813 80.9484 206.649 81.9789C206.513 82.846 205.415 90.5588 208.805 94.5016C209.969 95.8557 211.547 96.6254 213.387 96.7448L213.602 105.413H217.742L218.042 87.304C219.841 87.1658 221.384 86.3992 222.53 85.0672C225.923 81.1244 224.824 73.4084 224.689 72.5413Z" fill="#BDBDBD"/>
<path d="M47.9547 89.4247C47.8506 88.7681 47.2352 88.3188 46.5724 88.4225C45.9128 88.5262 45.4615 89.1419 45.5657 89.7985C45.7392 90.9201 45.9602 94.4325 44.742 95.8463C44.4769 96.151 44.1613 96.3364 43.7604 96.4086L43.8709 89.72C43.8867 88.7492 43.1009 87.9512 42.1225 87.9512C41.141 87.9512 40.352 88.7555 40.3741 89.7357L40.6897 102.431C40.27 102.365 39.9386 102.18 39.6672 101.863C38.449 100.449 38.6699 96.9364 38.8435 95.8148C38.9476 95.1582 38.4963 94.5425 37.8367 94.4388C37.1771 94.3351 36.5585 94.7844 36.4544 95.441C36.366 95.9939 35.6686 100.911 37.8272 103.424C38.5689 104.288 39.5756 104.778 40.7497 104.853L40.8885 110.38H43.5269L43.7194 98.834C44.8682 98.746 45.8497 98.2591 46.5787 97.4077C48.7406 94.8943 48.0431 89.9776 47.9547 89.4247Z" fill="#BDBDBD"/>
<path d="M125 191C206.738 191 273 169.51 273 143C273 116.49 206.738 95.0001 125 95.0001C43.2619 95.0001 -23 116.49 -23 143C-23 169.51 43.2619 191 125 191Z" fill="url(#paint0_linear_67_2667)"/>
<path d="M135.949 33.019L49.8264 126.088L174.544 127.298L168.961 44.0997L135.949 33.019Z" fill="url(#paint1_linear_67_2667)"/>
<path d="M171.687 56.4999C171.99 56.6004 172.315 56.6413 172.653 56.6036C173.878 56.4622 174.755 55.3626 174.613 54.1436L173.392 43.5939C173.25 42.3749 172.142 41.5047 170.92 41.6398C169.696 41.7811 168.819 42.8807 168.961 44.0997L170.182 54.6495C170.286 55.5323 170.895 56.2329 171.687 56.4999Z" fill="url(#paint2_linear_67_2667)"/>
<path d="M172.65 58.8813C175.158 58.8813 177.192 56.8572 177.192 54.3604C177.192 51.8636 175.158 49.8395 172.65 49.8395C170.142 49.8395 168.109 51.8636 168.109 54.3604C168.109 56.8572 170.142 58.8813 172.65 58.8813Z" fill="url(#paint3_linear_67_2667)"/>
<path d="M126.238 41.2439C125.935 41.1434 125.651 40.9769 125.408 40.7444C124.518 39.893 124.49 38.4887 125.345 37.6027L132.733 29.9433C133.589 29.0574 134.999 29.0322 135.886 29.8773C136.776 30.7287 136.805 32.1331 135.949 33.019L128.561 40.6784C127.943 41.3193 127.034 41.511 126.238 41.2439Z" fill="url(#paint4_linear_67_2667)"/>
<path d="M126.775 43.4839C129.283 43.4839 131.316 41.4599 131.316 38.9631C131.316 36.4663 129.283 34.4422 126.775 34.4422C124.267 34.4422 122.234 36.4663 122.234 38.9631C122.234 41.4599 124.267 43.4839 126.775 43.4839Z" fill="url(#paint5_linear_67_2667)"/>
<path d="M153.828 36.5974C143.893 33.2641 134.816 29.6794 127.372 26.2644C131.821 33.3677 140.223 39.7987 150.906 43.3834C161.497 46.9398 172.009 46.9209 179.852 44.0274C172.145 42.2681 163.223 39.7516 153.828 36.5974Z" fill="url(#paint6_linear_67_2667)"/>
<path d="M204.901 44.8789C203.411 49.2741 180.262 45.4695 153.19 36.3838C126.119 27.298 105.384 16.3713 106.87 11.9761C108.36 7.58087 131.509 11.3854 158.581 20.4712C185.653 29.5569 206.39 40.4868 204.901 44.8789Z" fill="url(#paint7_linear_67_2667)"/>
<path opacity="0.2" d="M153.8 34.593C128.596 26.1325 108.887 16.0791 107.489 11.1875C107.186 11.4137 106.978 11.6776 106.874 11.9792C105.384 16.3744 126.122 27.3012 153.194 36.3869C180.265 45.4726 203.414 49.2772 204.904 44.882C205.008 44.5804 204.999 44.2442 204.898 43.8829C200.804 46.9303 179.003 43.0504 153.8 34.593Z" fill="white"/>
<path d="M157.751 24.9323C170.315 29.1485 182.541 30.8293 182.541 30.8293C184.816 18.2531 177.589 5.58276 165.06 1.37605C152.493 -2.84008 138.989 2.93746 133.178 14.392C133.178 14.392 145.187 20.7162 157.751 24.9323Z" fill="url(#paint8_linear_67_2667)"/>
</g>
<path d="M111.504 142V132.628H111.579L118.137 142H119.589V130.022H118.112V139.427H118.037L111.479 130.022H110.027V142H111.504ZM125.267 142.149C127.649 142.149 129.26 140.431 129.26 137.684C129.26 134.928 127.649 133.218 125.267 133.218C122.876 133.218 121.266 134.928 121.266 137.684C121.266 140.431 122.876 142.149 125.267 142.149ZM125.267 140.879C123.74 140.879 122.735 139.717 122.735 137.684C122.735 135.65 123.74 134.488 125.267 134.488C126.794 134.488 127.79 135.65 127.79 137.684C127.79 139.717 126.794 140.879 125.267 140.879ZM138.399 133.218C137.145 133.218 136.141 133.857 135.61 134.828H135.576V133.367H134.207V144.88H135.651V140.597H135.684C136.199 141.543 137.195 142.149 138.432 142.149C140.607 142.149 142.093 140.39 142.093 137.684C142.093 134.978 140.598 133.218 138.399 133.218ZM138.117 140.879C136.639 140.879 135.643 139.609 135.643 137.684C135.643 135.766 136.639 134.488 138.117 134.488C139.652 134.488 140.615 135.733 140.615 137.684C140.615 139.643 139.652 140.879 138.117 140.879ZM147.131 142.149C149.513 142.149 151.124 140.431 151.124 137.684C151.124 134.928 149.513 133.218 147.131 133.218C144.741 133.218 143.13 134.928 143.13 137.684C143.13 140.431 144.741 142.149 147.131 142.149ZM147.131 140.879C145.604 140.879 144.599 139.717 144.599 137.684C144.599 135.65 145.604 134.488 147.131 134.488C148.659 134.488 149.655 135.65 149.655 137.684C149.655 139.717 148.659 140.879 147.131 140.879ZM152.435 135.75C152.435 136.928 153.182 137.708 154.701 138.099L156.221 138.489C157.192 138.746 157.549 139.078 157.549 139.692C157.549 140.473 156.826 140.971 155.656 140.971C154.486 140.971 153.805 140.489 153.647 139.593H152.203C152.352 141.12 153.672 142.149 155.565 142.149C157.582 142.149 159.001 141.087 159.001 139.584C159.001 138.314 158.37 137.684 156.627 137.244L155.291 136.92C154.311 136.671 153.855 136.272 153.855 135.675C153.855 134.919 154.552 134.396 155.606 134.396C156.669 134.396 157.341 134.911 157.441 135.741H158.819C158.752 134.28 157.441 133.218 155.656 133.218C153.755 133.218 152.435 134.272 152.435 135.75ZM160.969 131.284V133.367H159.682V134.554H160.969V139.759C160.969 141.419 161.583 142.066 163.168 142.066C163.509 142.066 163.907 142.042 164.081 142V140.788C163.982 140.805 163.65 140.83 163.484 140.83C162.745 140.83 162.413 140.473 162.413 139.684V134.554H164.09V133.367H162.413V131.284H160.969Z" fill="#686868"/>
<defs>
<linearGradient id="paint0_linear_67_2667" x1="125.001" y1="73.2478" x2="125.001" y2="148.621" gradientUnits="userSpaceOnUse">
<stop stop-color="#E5E5E5"/>
<stop offset="0.4764" stop-color="#F4F4F4"/>
<stop offset="1" stop-color="white"/>
</linearGradient>
<linearGradient id="paint1_linear_67_2667" x1="147.262" y1="-14.1598" x2="127.486" y2="86.667" gradientUnits="userSpaceOnUse">
<stop stop-color="white"/>
<stop offset="1" stop-color="#B9B9B9" stop-opacity="0"/>
</linearGradient>
<linearGradient id="paint2_linear_67_2667" x1="172.273" y1="55.6885" x2="170.665" y2="33.6974" gradientUnits="userSpaceOnUse">
<stop stop-color="#8A8A8A"/>
<stop offset="1" stop-color="#ECECEC"/>
</linearGradient>
<linearGradient id="paint3_linear_67_2667" x1="169.46" y1="56.9077" x2="176.076" y2="51.5738" gradientUnits="userSpaceOnUse">
<stop stop-color="#DEDEDE"/>
<stop offset="1" stop-color="#9B9B9B"/>
</linearGradient>
<linearGradient id="paint4_linear_67_2667" x1="128.704" y1="37.2157" x2="137.158" y2="28.8596" gradientUnits="userSpaceOnUse">
<stop stop-color="#E8E8E8"/>
<stop offset="1" stop-color="#AAAAAA"/>
</linearGradient>
<linearGradient id="paint5_linear_67_2667" x1="123.585" y1="41.5104" x2="130.201" y2="36.1764" gradientUnits="userSpaceOnUse">
<stop stop-color="#DEDEDE"/>
<stop offset="1" stop-color="#9B9B9B"/>
</linearGradient>
<linearGradient id="paint6_linear_67_2667" x1="154.543" y1="31.8433" x2="148.047" y2="55.1236" gradientUnits="userSpaceOnUse">
<stop stop-color="#EEEEEE"/>
<stop offset="1" stop-color="#787878"/>
</linearGradient>
<linearGradient id="paint7_linear_67_2667" x1="146.762" y1="55.3732" x2="156.626" y2="25.9824" gradientUnits="userSpaceOnUse">
<stop stop-color="#989898"/>
<stop offset="1" stop-color="#E9E9E9"/>
</linearGradient>
<linearGradient id="paint8_linear_67_2667" x1="152.507" y1="-0.763435" x2="178.898" y2="32.9143" gradientUnits="userSpaceOnUse">
<stop stop-color="#EDEDED"/>
<stop offset="0.260417" stop-color="#E3E3E3"/>
<stop offset="0.614583" stop-color="#F7F7F7"/>
<stop offset="0.916667" stop-color="#CCCCCC"/>
</linearGradient>
<clipPath id="clip0_67_2667">
<rect width="273" height="190.307" fill="white"/>
</clipPath>
</defs>
</svg>
