<svg width="28" height="16" viewBox="0 0 28 16" fill="none" xmlns="http://www.w3.org/2000/svg">
<rect width="28" height="16" rx="8" fill="#FF453A"/>
<path d="M17.2969 7.29688H14.7031V4.70312C14.7031 4.3148 14.3883 4 14 4C13.6117 4 13.2969 4.3148 13.2969 4.70312V7.29688H10.7031C10.3148 7.29688 10 7.61167 10 8C10 8.38833 10.3148 8.70312 10.7031 8.70312H13.2969V11.2969C13.2969 11.6852 13.6117 12 14 12C14.3883 12 14.7031 11.6852 14.7031 11.2969V8.70312H17.2969C17.6852 8.70312 18 8.38833 18 8C18 7.61167 17.6852 7.29688 17.2969 7.29688Z" fill="white"/>
</svg>
