<svg width="21" height="20" viewBox="0 0 21 20" fill="none" xmlns="http://www.w3.org/2000/svg">
<path d="M5.49999 3.33332C6.89166 2.29166 8.62499 1.66666 10.5 1.66666C15.1 1.66666 18.8333 5.39999 18.8333 9.99999C18.8333 14.6 15.1 18.3333 10.5 18.3333C5.89999 18.3333 2.16666 14.6 2.16666 9.99999C2.16666 8.49166 2.56665 7.07498 3.27498 5.84998L10.5 9.99999" stroke="white" stroke-width="1.5" stroke-miterlimit="10" stroke-linecap="round" stroke-linejoin="round"/>
<path d="M6.19166 7.46666C5.74999 8.20833 5.5 9.075 5.5 10C5.5 12.7583 7.74167 15 10.5 15C13.2583 15 15.5 12.7583 15.5 10C15.5 7.24167 13.2583 5 10.5 5C9.74167 5 9.01668 5.16667 8.37501 5.47501" stroke="white" stroke-width="1.5" stroke-miterlimit="10" stroke-linecap="round" stroke-linejoin="round"/>
</svg>
