<svg width="21" height="20" viewBox="0 0 21 20" fill="none" xmlns="http://www.w3.org/2000/svg">
<path d="M5.50008 3.33332C6.89175 2.29166 8.62508 1.66666 10.5001 1.66666C15.1001 1.66666 18.8334 5.39999 18.8334 9.99999C18.8334 14.6 15.1001 18.3333 10.5001 18.3333C5.90008 18.3333 2.16675 14.6 2.16675 9.99999C2.16675 8.49166 2.56674 7.07498 3.27507 5.84998L10.5001 9.99999" stroke="#686868" stroke-width="1.5" stroke-miterlimit="10" stroke-linecap="round" stroke-linejoin="round"/>
<path d="M6.19166 7.46666C5.74999 8.20833 5.5 9.075 5.5 10C5.5 12.7583 7.74167 15 10.5 15C13.2583 15 15.5 12.7583 15.5 10C15.5 7.24167 13.2583 5 10.5 5C9.74167 5 9.01668 5.16667 8.37501 5.47501" stroke="#686868" stroke-width="1.5" stroke-miterlimit="10" stroke-linecap="round" stroke-linejoin="round"/>
</svg>
