<svg width="8" height="8" viewBox="0 0 8 8" fill="none" xmlns="http://www.w3.org/2000/svg">
<path d="M5.11991 0.938286L5.43991 1.58829C5.59991 1.90829 6.00991 2.20829 6.34991 2.26829L6.77991 2.33829C8.08991 2.55829 8.38991 3.51829 7.45991 4.45829L7.05991 4.85829C6.78991 5.12829 6.64991 5.64829 6.72991 6.02829L6.77991 6.26829C7.13991 7.84829 6.29991 8.45829 4.92991 7.62829L4.63991 7.44829C4.28991 7.23829 3.70991 7.23829 3.35991 7.44829L3.06991 7.62829C1.68991 8.45829 0.859912 7.84829 1.21991 6.26829L1.26991 6.02829C1.34991 5.65829 1.20991 5.12829 0.939911 4.85829L0.539912 4.45829C-0.390088 3.50829 -0.0900878 2.55829 1.21991 2.33829L1.64991 2.26829C1.99991 2.20829 2.39991 1.90829 2.55991 1.58829L2.87991 0.938286C3.49991 -0.311714 4.49991 -0.311714 5.11991 0.938286Z" fill="#34C86F"/>
</svg>
